<svg xmlns="http://www.w3.org/2000/svg" width="1300" height="368" viewBox="0 0 1300 368"><svg x="0" y="0" width="288" height="368" viewBox="128 96 288 368"><path d="M176 416 V144 H268 A96 96 0 0 1 268 336 H176" fill="none" stroke="#1E3A5F" stroke-width="64" stroke-linecap="round" stroke-linejoin="round"></path><g transform="translate(203 175) scale(1.3)"><g fill="#5B95A8"><ellipse cx="50" cy="66" rx="22" ry="17"></ellipse><ellipse cx="27" cy="42" rx="8.5" ry="12" transform="rotate(-22 27 42)"></ellipse><ellipse cx="73" cy="42" rx="8.5" ry="12" transform="rotate(22 73 42)"></ellipse><ellipse cx="41" cy="28" rx="9" ry="13" transform="rotate(-7 41 28)"></ellipse><ellipse cx="59" cy="28" rx="9" ry="13" transform="rotate(7 59 28)"></ellipse></g></g></svg><text font-family="Nunito, sans-serif" font-weight="800" x="340" y="232" font-size="140"><tspan fill="#1E3A5F">Paw</tspan><tspan fill="#5B95A8">structıons</tspan></text><g transform="translate(1012 93) scale(2.6)"><path fill="#5B95A8" d="M0 6C0 2 3 0 6 0c3 0 4 2 6 4 2-2 3-4 6-4 3 0 6 2 6 6 0 6-12 14-12 14S0 12 0 6Z"></path></g></svg>