<svg xmlns="http://www.w3.org/2000/svg" width="24" height="24" viewBox="0 0 24 24" fill="none"><rect x="4" y="9.4" width="16" height="10.6" rx="1.6" fill="#1E3A5F"></rect><path d="M5.4 11l6.6 4.8L18.6 11" stroke="#FEFDF9" stroke-width="1.4" stroke-linecap="round" stroke-linejoin="round" fill="none"></path><path d="M12 18.4s-2.4-1.5-2.4-3c0-.8.6-1.4 1.3-1.4.5 0 .8.3 1.1.7.3-.4.6-.7 1.1-.7.7 0 1.3.6 1.3 1.4 0 1.5-2.4 3-2.4 3Z" fill="#C6A75E"></path><circle cx="16.2" cy="6" r="2.5" fill="#5B95A8"></circle><path d="M18.4 5.2l2.6.8-2.6.8Z" fill="#C6A75E"></path><ellipse cx="15" cy="5.4" rx="1.5" ry="0.95" fill="#1E3A5F" transform="rotate(-24 15 5.4)"></ellipse><circle cx="17" cy="5.3" r="0.6" fill="#FEFDF9"></circle></svg>